<svg enable-background="new 0 0 19 9.6" viewBox="0 0 19 9.6" xmlns="http://www.w3.org/2000/svg"><path d="m12.1 1.1c-4.4-2.1-6.1-.8-3.1 1.1 1.1-.3 2.8-.6 3.9-.8-.2 0-.6-.2-.8-.3zm-7.3 5.7c-2.1 1.2-3.7 1.9-4.8 2.2 1.7-.4 3.7-1.2 5.5-2.1 1.9-.9 3.6-1.9 4.9-2.8l-.5-.4c-.6-.6-.6-.5.1-.4 2 .4 3.3.6 3.3.6s-.4 1.4-1.8 3.8c-.3.6-.2.6-.3-.1l-.2-.9c-1.2.9-2.6 1.7-4.1 2.2 1.5-.4 2.2-.6 3.4-1.2-.9 2.2.5 2.9 3-.1.9-1.1 1.5-2.1 1.9-2.8 6.2-2.4 4.9-5.1-3.5-3-3 .7-5.2 1.5-6.7 2.3-5.2-4.2-2.1 2.3-.2 2.7z"/></svg>